<svg xmlns="http://www.w3.org/2000/svg" viewBox="0 0 490.667 490.667"><path d="M245.333 0C109.839 0 0 109.839 0 245.333s109.839 245.333 245.333 245.333 245.333-109.839 245.333-245.333C490.514 109.903 380.764.153 245.333 0z" fill="#ffc107"/><g fill="#fafafa"><path d="M256 362.667h-74.667c-5.891 0-10.667-4.776-10.667-10.667V138.667c0-5.891 4.776-10.667 10.667-10.667H256c35.346.015 63.987 28.682 63.972 64.028a63.998 63.998 0 01-28.623 53.305c29.455 19.538 37.494 59.255 17.956 88.711A64 64 0 01256 362.667zm-64-21.334h64c23.564 0 42.667-19.103 42.667-42.667S279.564 256 256 256h-64v85.333zm0-106.666h64c23.564 0 42.667-19.103 42.667-42.667S279.564 149.333 256 149.333h-64v85.334z"/><path d="M202.667 149.333c-5.891 0-10.667-4.776-10.667-10.667v-21.333c0-5.891 4.776-10.667 10.667-10.667s10.667 4.776 10.667 10.667v21.333c-.001 5.892-4.776 10.667-10.667 10.667zM245.333 149.333c-5.891 0-10.667-4.776-10.667-10.667v-21.333c0-5.891 4.776-10.667 10.667-10.667S256 111.442 256 117.333v21.333c0 5.892-4.776 10.667-10.667 10.667zM202.667 384c-5.891 0-10.667-4.776-10.667-10.667V352c0-5.891 4.776-10.667 10.667-10.667s10.667 4.776 10.667 10.667v21.333c-.001 5.891-4.776 10.667-10.667 10.667zM245.333 384c-5.891 0-10.667-4.776-10.667-10.667V352c0-5.891 4.776-10.667 10.667-10.667S256 346.109 256 352v21.333c0 5.891-4.776 10.667-10.667 10.667z"/></g></svg>